<?xml version="1.0" encoding="iso-8859-1"?>
<!-- Generator: Adobe Illustrator 19.0.0, SVG Export Plug-In . SVG Version: 6.00 Build 0)  -->
<svg version="1.1" id="Capa_1" xmlns="http://www.w3.org/2000/svg" xmlns:xlink="http://www.w3.org/1999/xlink" x="0px" y="0px"
	 viewBox="0 0 512 512" style="enable-background:new 0 0 512 512;" xml:space="preserve">
<path style="fill:#B9DF6B;" d="M376.719,320.547L273.722,217.684c-5.863-5.855-5.866-15.369,0-21.227
	c9.781-9.767,9.782-25.573,0-35.342c-5.863-5.855-5.866-15.369,0-21.227l39.763-39.711c5.856-5.849,15.344-5.849,21.199,0
	l95.916,95.792c3.963,3.958,5.391,9.795,3.702,15.136l-32.683,103.351C398.226,325.191,384.655,328.474,376.719,320.547z"/>
<path style="fill:#475BA3;" d="M256.001,512c-8.284,0-15-6.716-15-15V316.047c0-8.284,6.716-15,15-15s15,6.716,15,15V497
	C271.001,505.284,264.285,512,256.001,512z"/>
<path style="fill:#FFD664;" d="M217.08,161.116l-39.763-39.711c-5.863-5.855-5.866-15.369,0-21.227l95.917-95.792
	c3.955-3.952,9.779-5.371,15.112-3.692l103.484,32.64c10.722,3.383,14.049,16.969,6.088,24.919L294.921,161.116
	c-5.856,5.849-15.343,5.849-21.199,0c-9.771-9.758-25.671-9.758-35.442,0C232.426,166.964,222.937,166.966,217.08,161.116z"/>
<path style="fill:#FFBB54;" d="M391.83,33.334L288.346,0.694c-5.333-1.679-11.157-0.26-15.112,3.692l-17.233,17.211v132.201
	c6.418,0,12.835,2.439,17.721,7.318c5.856,5.849,15.343,5.849,21.199,0L397.918,58.253C405.879,50.303,402.552,36.717,391.83,33.334
	z"/>
<path style="fill:#91E0FF;" d="M223.656,356.88l-103.485-32.64c-10.737-3.389-14.036-16.982-6.087-24.919l102.997-102.863
	c5.856-5.849,15.343-5.849,21.199,0c9.771,9.758,25.671,9.758,35.442,0c5.855-5.85,15.343-5.85,21.199,0l39.763,39.711
	c5.863,5.855,5.866,15.369,0,21.227l-95.916,95.792C234.82,357.131,229,358.562,223.656,356.88z"/>
<path style="fill:#61CEF3;" d="M334.684,236.169l-39.763-39.711c-5.856-5.85-15.344-5.85-21.199,0
	c-4.886,4.879-11.303,7.318-17.721,7.318v132.2l78.683-78.581C340.55,251.537,340.547,242.024,334.684,236.169z"/>
<path style="fill:#FF7560;" d="M177.317,257.395l-95.916-95.791c-3.963-3.958-5.391-9.795-3.702-15.136l32.683-103.352
	c3.385-10.707,16.949-14.034,24.901-6.091L238.28,139.888c5.863,5.855,5.866,15.369,0,21.227c-9.781,9.767-9.782,25.573,0,35.342
	c5.863,5.855,5.866,15.369,0,21.227l-39.763,39.711C192.661,263.243,183.174,263.245,177.317,257.395z"/>
<path style="fill:#475BA3;" d="M217.08,217.684c-21.524-21.496-21.526-56.297,0-77.795c21.46-21.435,56.38-21.433,77.841,0l0,0
	c21.524,21.496,21.526,56.297,0,77.795C273.476,239.103,238.556,239.133,217.08,217.684z"/>
<path style="fill:#404F94;" d="M294.921,139.889c-10.73-10.716-24.825-16.075-38.92-16.075v109.945
	c14.099-0.001,28.195-5.363,38.92-16.075C316.447,196.186,316.445,161.385,294.921,139.889z"/>
<g>
</g>
<g>
</g>
<g>
</g>
<g>
</g>
<g>
</g>
<g>
</g>
<g>
</g>
<g>
</g>
<g>
</g>
<g>
</g>
<g>
</g>
<g>
</g>
<g>
</g>
<g>
</g>
<g>
</g>
</svg>
